<svg xmlns="http://www.w3.org/2000/svg" width="18" height="18" viewBox="0 0 18 18" fill="none">
  <path d="M6.75 9.5625L8.4375 11.25L11.25 7.3125M15.75 9C15.75 9.951 15.2775 10.7925 14.5553 11.301C14.6331 11.7456 14.6026 12.2024 14.4664 12.6327C14.3303 13.063 14.0924 13.4541 13.773 13.773C13.4541 14.0924 13.063 14.3303 12.6327 14.4664C12.2024 14.6026 11.7456 14.6331 11.301 14.5552C11.0417 14.9246 10.6971 15.226 10.2966 15.434C9.89607 15.642 9.45131 15.7504 9 15.75C8.049 15.75 7.2075 15.2775 6.699 14.5552C6.25443 14.633 5.79766 14.6025 5.36737 14.4663C4.93707 14.3302 4.54591 14.0924 4.227 13.773C3.90759 13.4541 3.66973 13.063 3.53357 12.6327C3.3974 12.2024 3.36693 11.7456 3.44475 11.301C3.07539 11.0417 2.77397 10.6971 2.566 10.2966C2.35802 9.89607 2.24963 9.45131 2.25 9C2.25 8.049 2.7225 7.2075 3.44475 6.699C3.36693 6.25442 3.3974 5.79764 3.53357 5.36734C3.66973 4.93703 3.90759 4.54588 4.227 4.227C4.54591 3.90765 4.93707 3.66982 5.36737 3.53366C5.79766 3.39749 6.25443 3.367 6.699 3.44475C6.95838 3.07544 7.30292 2.77405 7.70344 2.56608C8.10397 2.35811 8.5487 2.2497 9 2.25C9.951 2.25 10.7925 2.7225 11.301 3.44475C11.7456 3.367 12.2023 3.39749 12.6326 3.53366C13.0629 3.66982 13.4541 3.90765 13.773 4.227C14.0924 4.54591 14.3302 4.93707 14.4663 5.36737C14.6025 5.79766 14.633 6.25442 14.5553 6.699C14.9246 6.95834 15.226 7.30286 15.434 7.7034C15.642 8.10394 15.7504 8.54869 15.75 9Z" stroke="#009000" stroke-width="1.125" stroke-linecap="round" stroke-linejoin="round"/>
</svg>