<svg xmlns="http://www.w3.org/2000/svg" width="18" height="18" viewBox="0 0 18 18" fill="none">
  <rect width="18" height="18" fill="white"/>
  <path d="M15.1875 10.6125V13.8C15.1875 14.6205 14.5973 15.327 13.7835 15.435C12.2183 15.6427 10.6215 15.75 9.00004 15.75C7.37854 15.75 5.78179 15.6427 4.21654 15.435C3.40279 15.327 2.81254 14.6205 2.81254 13.8V10.6125M15.1875 10.6125C15.3656 10.4577 15.5081 10.2663 15.6052 10.0512C15.7023 9.83619 15.7517 9.60269 15.75 9.36675V6.5295C15.75 5.71875 15.174 5.01825 14.3723 4.89825C13.5228 4.77106 12.669 4.67425 11.8125 4.608M15.1875 10.6125C15.042 10.7362 14.8725 10.8337 14.6828 10.8975C12.85 11.5056 10.9311 11.8146 9.00004 11.8125C7.01404 11.8125 5.10379 11.4907 3.31729 10.8975C3.13224 10.8359 2.96084 10.7392 2.81254 10.6125M2.81254 10.6125C2.63445 10.4577 2.49196 10.2663 2.39487 10.0512C2.29777 9.83619 2.24836 9.60269 2.25004 9.36675V6.5295C2.25004 5.71875 2.82604 5.01825 3.62779 4.89825C4.47731 4.77106 5.33111 4.67425 6.18754 4.608M11.8125 4.608V3.9375C11.8125 3.48995 11.6348 3.06072 11.3183 2.74426C11.0018 2.42779 10.5726 2.25 10.125 2.25H7.87504C7.42749 2.25 6.99827 2.42779 6.6818 2.74426C6.36533 3.06072 6.18754 3.48995 6.18754 3.9375V4.608M11.8125 4.608C9.94033 4.46331 8.05975 4.46331 6.18754 4.608M9.00004 9.5625H9.00604V9.5685H9.00004V9.5625Z" stroke="#535353" stroke-width="1.125" stroke-linecap="round" stroke-linejoin="round"/>
</svg>