<svg xmlns="http://www.w3.org/2000/svg" width="18" height="18" viewBox="0 0 18 18" fill="none">
  <path d="M9.5625 9.5625C9.5625 9.71168 9.50324 9.85476 9.39775 9.96025C9.29226 10.0657 9.14918 10.125 9 10.125C8.85082 10.125 8.70774 10.0657 8.60225 9.96025C8.49676 9.85476 8.4375 9.71168 8.4375 9.5625C8.4375 9.41332 8.49676 9.27024 8.60225 9.16475C8.70774 9.05926 8.85082 9 9 9C9.14918 9 9.29226 9.05926 9.39775 9.16475C9.50324 9.27024 9.5625 9.41332 9.5625 9.5625ZM5.625 11.8125C5.77418 11.8125 5.91726 11.7532 6.02275 11.6477C6.12824 11.5423 6.1875 11.3992 6.1875 11.25C6.1875 11.1008 6.12824 10.9577 6.02275 10.8523C5.91726 10.7468 5.77418 10.6875 5.625 10.6875C5.47582 10.6875 5.33274 10.7468 5.22725 10.8523C5.12176 10.9577 5.0625 11.1008 5.0625 11.25C5.0625 11.3992 5.12176 11.5423 5.22725 11.6477C5.33274 11.7532 5.47582 11.8125 5.625 11.8125ZM6.1875 12.9375C6.1875 13.0867 6.12824 13.2298 6.02275 13.3352C5.91726 13.4407 5.77418 13.5 5.625 13.5C5.47582 13.5 5.33274 13.4407 5.22725 13.3352C5.12176 13.2298 5.0625 13.0867 5.0625 12.9375C5.0625 12.7883 5.12176 12.6452 5.22725 12.5398C5.33274 12.4343 5.47582 12.375 5.625 12.375C5.77418 12.375 5.91726 12.4343 6.02275 12.5398C6.12824 12.6452 6.1875 12.7883 6.1875 12.9375ZM7.3125 11.8125C7.46168 11.8125 7.60476 11.7532 7.71025 11.6477C7.81574 11.5423 7.875 11.3992 7.875 11.25C7.875 11.1008 7.81574 10.9577 7.71025 10.8523C7.60476 10.7468 7.46168 10.6875 7.3125 10.6875C7.16332 10.6875 7.02024 10.7468 6.91475 10.8523C6.80926 10.9577 6.75 11.1008 6.75 11.25C6.75 11.3992 6.80926 11.5423 6.91475 11.6477C7.02024 11.7532 7.16332 11.8125 7.3125 11.8125ZM7.875 12.9375C7.875 13.0867 7.81574 13.2298 7.71025 13.3352C7.60476 13.4407 7.46168 13.5 7.3125 13.5C7.16332 13.5 7.02024 13.4407 6.91475 13.3352C6.80926 13.2298 6.75 13.0867 6.75 12.9375C6.75 12.7883 6.80926 12.6452 6.91475 12.5398C7.02024 12.4343 7.16332 12.375 7.3125 12.375C7.46168 12.375 7.60476 12.4343 7.71025 12.5398C7.81574 12.6452 7.875 12.7883 7.875 12.9375ZM9 11.8125C9.14918 11.8125 9.29226 11.7532 9.39775 11.6477C9.50324 11.5423 9.5625 11.3992 9.5625 11.25C9.5625 11.1008 9.50324 10.9577 9.39775 10.8523C9.29226 10.7468 9.14918 10.6875 9 10.6875C8.85082 10.6875 8.70774 10.7468 8.60225 10.8523C8.49676 10.9577 8.4375 11.1008 8.4375 11.25C8.4375 11.3992 8.49676 11.5423 8.60225 11.6477C8.70774 11.7532 8.85082 11.8125 9 11.8125ZM9.5625 12.9375C9.5625 13.0867 9.50324 13.2298 9.39775 13.3352C9.29226 13.4407 9.14918 13.5 9 13.5C8.85082 13.5 8.70774 13.4407 8.60225 13.3352C8.49676 13.2298 8.4375 13.0867 8.4375 12.9375C8.4375 12.7883 8.49676 12.6452 8.60225 12.5398C8.70774 12.4343 8.85082 12.375 9 12.375C9.14918 12.375 9.29226 12.4343 9.39775 12.5398C9.50324 12.6452 9.5625 12.7883 9.5625 12.9375ZM10.6875 11.8125C10.8367 11.8125 10.9798 11.7532 11.0852 11.6477C11.1907 11.5423 11.25 11.3992 11.25 11.25C11.25 11.1008 11.1907 10.9577 11.0852 10.8523C10.9798 10.7468 10.8367 10.6875 10.6875 10.6875C10.5383 10.6875 10.3952 10.7468 10.2898 10.8523C10.1843 10.9577 10.125 11.1008 10.125 11.25C10.125 11.3992 10.1843 11.5423 10.2898 11.6477C10.3952 11.7532 10.5383 11.8125 10.6875 11.8125ZM11.25 12.9375C11.25 13.0867 11.1907 13.2298 11.0852 13.3352C10.9798 13.4407 10.8367 13.5 10.6875 13.5C10.5383 13.5 10.3952 13.4407 10.2898 13.3352C10.1843 13.2298 10.125 13.0867 10.125 12.9375C10.125 12.7883 10.1843 12.6452 10.2898 12.5398C10.3952 12.4343 10.5383 12.375 10.6875 12.375C10.8367 12.375 10.9798 12.4343 11.0852 12.5398C11.1907 12.6452 11.25 12.7883 11.25 12.9375ZM12.375 11.8125C12.5242 11.8125 12.6673 11.7532 12.7727 11.6477C12.8782 11.5423 12.9375 11.3992 12.9375 11.25C12.9375 11.1008 12.8782 10.9577 12.7727 10.8523C12.6673 10.7468 12.5242 10.6875 12.375 10.6875C12.2258 10.6875 12.0827 10.7468 11.9773 10.8523C11.8718 10.9577 11.8125 11.1008 11.8125 11.25C11.8125 11.3992 11.8718 11.5423 11.9773 11.6477C12.0827 11.7532 12.2258 11.8125 12.375 11.8125ZM11.25 9.5625C11.25 9.71168 11.1907 9.85476 11.0852 9.96025C10.9798 10.0657 10.8367 10.125 10.6875 10.125C10.5383 10.125 10.3952 10.0657 10.2898 9.96025C10.1843 9.85476 10.125 9.71168 10.125 9.5625C10.125 9.41332 10.1843 9.27024 10.2898 9.16475C10.3952 9.05926 10.5383 9 10.6875 9C10.8367 9 10.9798 9.05926 11.0852 9.16475C11.1907 9.27024 11.25 9.41332 11.25 9.5625ZM12.375 10.125C12.5242 10.125 12.6673 10.0657 12.7727 9.96025C12.8782 9.85476 12.9375 9.71168 12.9375 9.5625C12.9375 9.41332 12.8782 9.27024 12.7727 9.16475C12.6673 9.05926 12.5242 9 12.375 9C12.2258 9 12.0827 9.05926 11.9773 9.16475C11.8718 9.27024 11.8125 9.41332 11.8125 9.5625C11.8125 9.71168 11.8718 9.85476 11.9773 9.96025C12.0827 10.0657 12.2258 10.125 12.375 10.125Z" fill="#EE701B"/>
  <path fill-rule="evenodd" clip-rule="evenodd" d="M5.0625 1.6875C5.21168 1.6875 5.35476 1.74676 5.46025 1.85225C5.56574 1.95774 5.625 2.10082 5.625 2.25V3.375H12.375V2.25C12.375 2.10082 12.4343 1.95774 12.5398 1.85225C12.6452 1.74676 12.7883 1.6875 12.9375 1.6875C13.0867 1.6875 13.2298 1.74676 13.3352 1.85225C13.4407 1.95774 13.5 2.10082 13.5 2.25V3.375H14.0625C14.6592 3.375 15.2315 3.61205 15.6535 4.03401C16.0754 4.45597 16.3125 5.02826 16.3125 5.625V14.0625C16.3125 14.6592 16.0754 15.2315 15.6535 15.6535C15.2315 16.0754 14.6592 16.3125 14.0625 16.3125H3.9375C3.34076 16.3125 2.76847 16.0754 2.34651 15.6535C1.92455 15.2315 1.6875 14.6592 1.6875 14.0625V5.625C1.6875 5.02826 1.92455 4.45597 2.34651 4.03401C2.76847 3.61205 3.34076 3.375 3.9375 3.375H4.5V2.25C4.5 2.10082 4.55926 1.95774 4.66475 1.85225C4.77024 1.74676 4.91332 1.6875 5.0625 1.6875ZM15.1875 8.4375C15.1875 8.13913 15.069 7.85298 14.858 7.642C14.647 7.43103 14.3609 7.3125 14.0625 7.3125H3.9375C3.63913 7.3125 3.35298 7.43103 3.142 7.642C2.93103 7.85298 2.8125 8.13913 2.8125 8.4375V14.0625C2.8125 14.3609 2.93103 14.647 3.142 14.858C3.35298 15.069 3.63913 15.1875 3.9375 15.1875H14.0625C14.3609 15.1875 14.647 15.069 14.858 14.858C15.069 14.647 15.1875 14.3609 15.1875 14.0625V8.4375Z" fill="#EE701B"/>
</svg>