<svg xmlns="http://www.w3.org/2000/svg" width="22" height="20" viewBox="0 0 22 20" fill="none">
  <path d="M7.625 7.75C7.625 7.84946 7.58549 7.94484 7.51517 8.01517C7.44484 8.08549 7.34946 8.125 7.25 8.125C7.15054 8.125 7.05516 8.08549 6.98484 8.01517C6.91451 7.94484 6.875 7.84946 6.875 7.75C6.875 7.65055 6.91451 7.55516 6.98484 7.48484C7.05516 7.41451 7.15054 7.375 7.25 7.375C7.34946 7.375 7.44484 7.41451 7.51517 7.48484C7.58549 7.55516 7.625 7.65055 7.625 7.75ZM7.625 7.75H7.25M11.375 7.75C11.375 7.84946 11.3355 7.94484 11.2652 8.01517C11.1948 8.08549 11.0995 8.125 11 8.125C10.9005 8.125 10.8052 8.08549 10.7348 8.01517C10.6645 7.94484 10.625 7.84946 10.625 7.75C10.625 7.65055 10.6645 7.55516 10.7348 7.48484C10.8052 7.41451 10.9005 7.375 11 7.375C11.0995 7.375 11.1948 7.41451 11.2652 7.48484C11.3355 7.55516 11.375 7.65055 11.375 7.75ZM11.375 7.75H11M15.125 7.75C15.125 7.84946 15.0855 7.94484 15.0152 8.01517C14.9448 8.08549 14.8495 8.125 14.75 8.125C14.6505 8.125 14.5552 8.08549 14.4848 8.01517C14.4145 7.94484 14.375 7.84946 14.375 7.75C14.375 7.65055 14.4145 7.55516 14.4848 7.48484C14.5552 7.41451 14.6505 7.375 14.75 7.375C14.8495 7.375 14.9448 7.41451 15.0152 7.48484C15.0855 7.55516 15.125 7.65055 15.125 7.75ZM15.125 7.75H14.75M1.25 10.76C1.25 12.36 2.373 13.754 3.957 13.987C5.044 14.147 6.142 14.27 7.25 14.356V19L11.434 14.817C11.6412 14.6107 11.9197 14.4918 12.212 14.485C14.1636 14.437 16.1105 14.2707 18.042 13.987C19.627 13.754 20.75 12.361 20.75 10.759V4.741C20.75 3.139 19.627 1.746 18.043 1.513C15.711 1.17072 13.357 0.99926 11 1C8.608 1 6.256 1.175 3.957 1.513C2.373 1.746 1.25 3.14 1.25 4.741V10.759V10.76Z" stroke="#090401" stroke-width="1.5" stroke-linecap="round" stroke-linejoin="round"/>
</svg>