<svg xmlns="http://www.w3.org/2000/svg" width="16" height="16" viewBox="0 0 16 16" fill="none">
  <path fill-rule="evenodd" clip-rule="evenodd" d="M8 0C3.58154 0 0 3.58154 0 8C0 12.4185 3.58154 16 8 16C12.4185 16 16 12.4185 16 8C16 3.58154 12.4185 0 8 0ZM8.61539 3.07692C8.61539 2.91371 8.55055 2.75719 8.43514 2.64178C8.31974 2.52637 8.16321 2.46154 8 2.46154C7.83679 2.46154 7.68026 2.52637 7.56486 2.64178C7.44945 2.75719 7.38462 2.91371 7.38462 3.07692V8C7.38462 8.33969 7.66031 8.61539 8 8.61539H11.6923C11.8555 8.61539 12.012 8.55055 12.1275 8.43514C12.2429 8.31974 12.3077 8.16321 12.3077 8C12.3077 7.83679 12.2429 7.68026 12.1275 7.56486C12.012 7.44945 11.8555 7.38462 11.6923 7.38462H8.61539V3.07692Z" fill="#EE701B"/>
</svg>