<svg xmlns="http://www.w3.org/2000/svg" width="20" height="20" viewBox="0 0 20 20" fill="none">
  <g opacity="0.8">
    <path d="M1.875 10.6333C1.875 11.9667 2.81083 13.1283 4.13083 13.3225C5.02083 13.4533 5.92083 13.555 6.82917 13.6258C7.2175 13.6567 7.57333 13.86 7.79 14.185L10 17.5L12.21 14.185C12.4267 13.86 12.7825 13.6567 13.1708 13.6267C14.0792 13.555 14.9792 13.4533 15.8692 13.3225C17.1892 13.1283 18.125 11.9675 18.125 10.6325V5.6175C18.125 4.2825 17.1892 3.12167 15.8692 2.9275C13.9258 2.64226 11.9642 2.49938 10 2.5C8.00667 2.5 6.04667 2.64584 4.13083 2.9275C2.81083 3.12167 1.875 4.28334 1.875 5.6175V10.6325V10.6333Z" stroke="#090401" stroke-width="1.25" stroke-linecap="round" stroke-linejoin="round"/>
  </g>
</svg>