<svg xmlns="http://www.w3.org/2000/svg" width="19" height="18" viewBox="0 0 19 18" fill="none">
  <path d="M13.8125 2.25C14.459 2.25 15.079 2.50681 15.5361 2.96393C15.9932 3.42105 16.25 4.04103 16.25 4.6875V5.25H2.75V4.6875C2.75 4.04103 3.00681 3.42105 3.46393 2.96393C3.92105 2.50681 4.54103 2.25 5.1875 2.25H13.8125ZM16.25 6.375V9.0165C15.314 8.41786 14.2015 8.15691 13.097 8.2769C11.9924 8.39688 10.9619 8.89059 10.1762 9.67624C9.39059 10.4619 8.89688 11.4924 8.7769 12.597C8.65691 13.7015 8.91786 14.814 9.5165 15.75H5.1875C4.54103 15.75 3.92105 15.4932 3.46393 15.0361C3.00681 14.579 2.75 13.959 2.75 13.3125V6.375H16.25Z" fill="#707070"/>
  <path d="M17.75 13.125C17.75 12.031 17.3154 10.9818 16.5418 10.2082C15.7682 9.4346 14.719 9 13.625 9C12.531 9 11.4818 9.4346 10.7082 10.2082C9.9346 10.9818 9.5 12.031 9.5 13.125C9.5 14.219 9.9346 15.2682 10.7082 16.0418C11.4818 16.8154 12.531 17.25 13.625 17.25C14.719 17.25 15.7682 16.8154 16.5418 16.0418C17.3154 15.2682 17.75 14.219 17.75 13.125ZM13.625 13.125H15.125C15.2245 13.125 15.3198 13.1645 15.3902 13.2348C15.4605 13.3052 15.5 13.4005 15.5 13.5C15.5 13.5995 15.4605 13.6948 15.3902 13.7652C15.3198 13.8355 15.2245 13.875 15.125 13.875H13.25C13.1505 13.875 13.0552 13.8355 12.9848 13.7652C12.9145 13.6948 12.875 13.5995 12.875 13.5V11.25C12.875 11.1505 12.9145 11.0552 12.9848 10.9848C13.0552 10.9145 13.1505 10.875 13.25 10.875C13.3495 10.875 13.4448 10.9145 13.5152 10.9848C13.5855 11.0552 13.625 11.1505 13.625 11.25V13.125Z" fill="#707070"/>
</svg>