<svg xmlns="http://www.w3.org/2000/svg" width="20" height="20" viewBox="0 0 20 20" fill="none">
  <path d="M7.5 11.25L10 13.75M10 13.75L12.5 11.25M10 13.75V8.75M10.8833 5.25833L9.11667 3.49167C9.0006 3.37546 8.86278 3.28327 8.71107 3.22035C8.55936 3.15744 8.39674 3.12504 8.2325 3.125H3.75C3.25272 3.125 2.77581 3.32254 2.42417 3.67417C2.07254 4.02581 1.875 4.50272 1.875 5V15C1.875 15.4973 2.07254 15.9742 2.42417 16.3258C2.77581 16.6775 3.25272 16.875 3.75 16.875H16.25C16.7473 16.875 17.2242 16.6775 17.5758 16.3258C17.9275 15.9742 18.125 15.4973 18.125 15V7.5C18.125 7.00272 17.9275 6.52581 17.5758 6.17417C17.2242 5.82254 16.7473 5.625 16.25 5.625H11.7675C11.4361 5.62471 11.1175 5.49282 10.8833 5.25833Z" stroke="#090401" stroke-width="1.3125" stroke-linecap="round" stroke-linejoin="round"/>
</svg>