<svg width="20" height="21" viewBox="0 0 20 21" fill="none" xmlns="http://www.w3.org/2000/svg">
<path d="M1.25 7.72656V14.8766C1.25 15.5396 1.51339 16.1755 1.98223 16.6443C2.45107 17.1132 3.08696 17.3766 3.75 17.3766H16.25C16.913 17.3766 17.5489 17.1132 18.0178 16.6443C18.4866 16.1755 18.75 15.5396 18.75 14.8766V7.72656L11.31 12.3041C10.916 12.5464 10.4626 12.6748 10 12.6748C9.53745 12.6748 9.08396 12.5464 8.69 12.3041L1.25 7.72656Z" fill="#707070"/>
<path d="M18.75 6.25667V6.125C18.75 5.46196 18.4866 4.82607 18.0178 4.35723C17.5489 3.88839 16.913 3.625 16.25 3.625H3.75C3.08696 3.625 2.45107 3.88839 1.98223 4.35723C1.51339 4.82607 1.25 5.46196 1.25 6.125V6.25667L9.345 11.2383C9.54198 11.3595 9.76872 11.4237 10 11.4237C10.2313 11.4237 10.458 11.3595 10.655 11.2383L18.75 6.25667Z" fill="#707070"/>
</svg>
