<svg width="24" height="24" viewBox="0 0 24 24" fill="none" xmlns="http://www.w3.org/2000/svg">
<path d="M17.0597 15.521C17.5275 15.2015 18.0762 15.0211 18.6423 15.0004C19.2084 14.9798 19.7687 15.1199 20.2585 15.4044C20.7483 15.689 21.1476 16.1064 21.4101 16.6084C21.6725 17.1104 21.7875 17.6764 21.7417 18.241C20.5419 18.6603 19.2675 18.8235 18.0007 18.72C17.9968 17.5866 17.6704 16.4768 17.0597 15.522C16.5176 14.6718 15.7698 13.972 14.8855 13.4875C14.0013 13.003 13.009 12.7493 12.0007 12.75C10.9926 12.7495 10.0005 13.0032 9.11645 13.4877C8.23235 13.9723 7.48472 14.6719 6.94272 15.522M17.9997 18.719L18.0007 18.75C18.0007 18.975 17.9887 19.197 17.9637 19.416C16.1491 20.4571 14.0928 21.0033 12.0007 21C9.83072 21 7.79372 20.424 6.03772 19.416C6.01201 19.1846 5.99965 18.9519 6.00072 18.719M6.00072 18.719C4.73435 18.8263 3.46063 18.6637 2.26172 18.242C2.21607 17.6776 2.33111 17.1117 2.59355 16.6099C2.85598 16.1081 3.25509 15.6908 3.74472 15.4063C4.23435 15.1218 4.79451 14.9817 5.36044 15.0021C5.92636 15.0226 6.47493 15.2028 6.94272 15.522M6.00072 18.719C6.00431 17.5857 6.33234 16.4769 6.94272 15.522M15.0007 6.75C15.0007 7.54565 14.6846 8.30871 14.122 8.87132C13.5594 9.43393 12.7964 9.75 12.0007 9.75C11.2051 9.75 10.442 9.43393 9.8794 8.87132C9.31679 8.30871 9.00072 7.54565 9.00072 6.75C9.00072 5.95435 9.31679 5.19129 9.8794 4.62868C10.442 4.06607 11.2051 3.75 12.0007 3.75C12.7964 3.75 13.5594 4.06607 14.122 4.62868C14.6846 5.19129 15.0007 5.95435 15.0007 6.75ZM21.0007 9.75C21.0007 10.0455 20.9425 10.3381 20.8294 10.611C20.7164 10.884 20.5506 11.1321 20.3417 11.341C20.1328 11.5499 19.8847 11.7157 19.6118 11.8287C19.3388 11.9418 19.0462 12 18.7507 12C18.4552 12 18.1627 11.9418 17.8897 11.8287C17.6167 11.7157 17.3687 11.5499 17.1597 11.341C16.9508 11.1321 16.7851 10.884 16.672 10.611C16.5589 10.3381 16.5007 10.0455 16.5007 9.75C16.5007 9.15326 16.7378 8.58097 17.1597 8.15901C17.5817 7.73705 18.154 7.5 18.7507 7.5C19.3475 7.5 19.9198 7.73705 20.3417 8.15901C20.7637 8.58097 21.0007 9.15326 21.0007 9.75ZM7.50072 9.75C7.50072 10.0455 7.44252 10.3381 7.32945 10.611C7.21637 10.884 7.05064 11.1321 6.84171 11.341C6.63278 11.5499 6.38474 11.7157 6.11176 11.8287C5.83877 11.9418 5.54619 12 5.25072 12C4.95524 12 4.66266 11.9418 4.38968 11.8287C4.1167 11.7157 3.86866 11.5499 3.65973 11.341C3.4508 11.1321 3.28506 10.884 3.17199 10.611C3.05892 10.3381 3.00072 10.0455 3.00072 9.75C3.00072 9.15326 3.23777 8.58097 3.65973 8.15901C4.08168 7.73705 4.65398 7.5 5.25072 7.5C5.84745 7.5 6.41975 7.73705 6.84171 8.15901C7.26366 8.58097 7.50072 9.15326 7.50072 9.75Z" stroke="#090401" stroke-opacity="0.85" stroke-width="1.5" stroke-linecap="round" stroke-linejoin="round"/>
</svg>
