<svg width="24" height="24" viewBox="0 0 24 24" fill="none" xmlns="http://www.w3.org/2000/svg">
<path d="M15.0487 8.59981H9.54988C9.40404 8.59981 9.26418 8.54187 9.16106 8.43875C9.05793 8.33562 9 8.19575 9 8.0499C9 7.90406 9.05793 7.76419 9.16106 7.66106C9.26418 7.55794 9.40404 7.5 9.54988 7.5H15.0487C15.1945 7.5 15.3344 7.55794 15.4375 7.66106C15.5406 7.76419 15.5986 7.90406 15.5986 8.0499C15.5986 8.19575 15.5406 8.33562 15.4375 8.43875C15.3344 8.54187 15.1945 8.59981 15.0487 8.59981Z" fill="#090401"/>
<path d="M15.0487 11.3498H9.54988C9.40404 11.3498 9.26418 11.2919 9.16106 11.1887C9.05793 11.0856 9 10.9457 9 10.7999C9 10.6541 9.05793 10.5142 9.16106 10.4111C9.26418 10.3079 9.40404 10.25 9.54988 10.25H15.0487C15.1945 10.25 15.3344 10.3079 15.4375 10.4111C15.5406 10.5142 15.5986 10.6541 15.5986 10.7999C15.5986 10.9457 15.5406 11.0856 15.4375 11.1887C15.3344 11.2919 15.1945 11.3498 15.0487 11.3498Z" fill="#090401"/>
<path d="M13.9489 18.4999C13.8765 18.5003 13.8048 18.4865 13.7378 18.4591C13.6708 18.4317 13.6099 18.3914 13.5585 18.3405L9.15947 13.9412C9.08317 13.8639 9.03148 13.7657 9.01093 13.659C8.99038 13.5523 9.00188 13.442 9.04399 13.3418C9.08524 13.2414 9.1553 13.1554 9.24532 13.0948C9.33535 13.0341 9.44132 13.0014 9.54988 13.0009H10.6496C11.233 13.0009 11.7924 12.7691 12.2049 12.3566C12.6174 11.9441 12.8492 11.3846 12.8492 10.8013C12.8492 10.2179 12.6174 9.65841 12.2049 9.2459C11.7924 8.83339 11.233 8.60164 10.6496 8.60164H9.54988C9.40404 8.60164 9.26418 8.54371 9.16106 8.44058C9.05793 8.33745 9 8.19758 9 8.05174C9 7.9059 9.05793 7.76603 9.16106 7.6629C9.26418 7.55977 9.40404 7.50183 9.54988 7.50183H10.6496C11.5247 7.47267 12.3754 7.79231 13.0148 8.39045C13.6542 8.98858 14.0297 9.81622 14.0589 10.6913C14.0881 11.5663 13.7684 12.4172 13.1703 13.0565C12.5722 13.6959 11.7446 14.0715 10.8696 14.1007L14.3393 17.5651C14.3909 17.6162 14.4318 17.677 14.4597 17.744C14.4876 17.8111 14.502 17.8829 14.502 17.9555C14.502 18.0281 14.4876 18.1 14.4597 18.167C14.4318 18.234 14.3909 18.2948 14.3393 18.346C14.2347 18.4469 14.0943 18.5022 13.9489 18.4999Z" fill="#090401"/>
<circle cx="12" cy="12.5" r="10.4042" stroke="#090401" stroke-width="1.19167"/>
</svg>
