<svg xmlns="http://www.w3.org/2000/svg" width="67" height="67" viewBox="0 0 67 67" fill="none">
  <g clip-path="url(#clip0_546_11111)">
    <path d="M27.8674 20.713C27.7352 21.2273 27.6044 21.7413 27.4722 22.2556C27.4048 22.5284 27.3333 22.8021 27.29 23.08C27.0616 24.5612 26.8557 26.0464 26.5839 27.5205C26.2494 29.3353 25.8634 31.1414 25.464 32.9435C25.4048 33.2158 25.2912 33.4787 25.1791 33.7356C25.0708 33.9813 24.8574 34.1089 24.6026 34.16C24.2321 34.2355 23.9053 34.0038 23.8997 33.6219C23.8961 33.3802 23.9523 33.1287 24.0238 32.8961C24.356 31.8218 24.5708 30.724 24.6779 29.6057C24.708 29.2966 24.7173 28.9719 24.8245 28.6868C25.1664 27.7782 25.2581 26.813 25.5011 25.8825C25.683 25.1913 25.7998 24.4825 25.9573 23.7849C26.2383 22.54 26.5244 21.2962 26.794 20.0476C26.9028 19.5503 27.0915 19.0958 27.4447 18.7232C27.6085 18.5516 27.9203 18.6188 27.9521 18.8555C27.9975 19.191 28.0047 19.5363 27.9848 19.8759C27.9695 20.1545 27.8952 20.4309 27.8454 20.7081C27.8521 20.7101 27.8588 20.7121 27.8663 20.7146L27.8674 20.713Z" fill="#EE701B"/>
    <path d="M41.6006 27.6742C41.2934 28.0066 40.9844 28.3366 40.6836 28.6753C40.5242 28.8543 40.3621 29.0339 40.2252 29.2295C39.8587 29.7521 39.503 30.2827 39.1482 30.8138C38.7934 31.345 38.4407 31.8763 38.079 32.402C37.193 33.6986 36.2932 34.9865 35.422 36.2937C35.2902 36.4903 35.1135 36.6606 34.9402 36.8273C34.7734 36.9857 34.5418 37.0094 34.2936 36.9552C33.9315 36.8777 33.6939 36.5648 33.797 36.2485C33.8618 36.0481 33.9826 35.8616 34.1162 35.6981C34.7277 34.9427 35.2516 34.1349 35.6987 33.2704C35.8211 33.0314 35.9339 32.7715 36.122 32.5868C36.7197 31.9947 37.1224 31.2592 37.6588 30.6235C38.0568 30.1518 38.4086 29.6415 38.7996 29.1629C39.494 28.3075 40.2085 27.4705 40.9242 26.6355C41.2102 26.3022 41.5531 26.0461 42.004 25.9374C42.2124 25.8875 42.4538 26.0957 42.389 26.2927C42.2979 26.5721 42.1676 26.838 42.022 27.0885C41.9021 27.2949 41.7319 27.4694 41.5845 27.6582C41.5896 27.6627 41.5943 27.6679 41.6003 27.6728L41.6006 27.6742Z" fill="#EE701B"/>
    <path d="M48.5345 40.2048C48.1537 40.3 47.7707 40.3915 47.3919 40.4925C47.1906 40.5457 46.9879 40.5992 46.7964 40.678C45.7733 41.1022 44.7668 41.5666 43.744 41.9887C42.4855 42.5105 41.2186 43.0099 39.9599 43.5304C39.7697 43.609 39.5578 43.6394 39.3498 43.669C39.1502 43.696 38.9631 43.5781 38.7981 43.3912C38.5574 43.1173 38.5184 42.7324 38.7406 42.5443C38.8805 42.4246 39.0573 42.349 39.2342 42.2985C40.0434 42.062 40.8072 41.7283 41.5368 41.3032C41.7384 41.1852 41.9397 41.0442 42.1667 41.0062C42.8882 40.8826 43.5243 40.5292 44.2161 40.3285C44.7299 40.18 45.2255 39.9743 45.735 39.8128C46.6439 39.5234 47.5589 39.255 48.4727 38.9847C48.8375 38.877 49.2112 38.8628 49.6041 39.0283C49.785 39.1057 49.8799 39.41 49.7436 39.533C49.5513 39.7082 49.3364 39.8507 49.1138 39.9713C48.9319 40.0711 48.7245 40.1158 48.5288 40.1852C48.5311 40.1923 48.5326 40.1989 48.5348 40.2061L48.5345 40.2048Z" fill="#EE701B"/>
    <path d="M44.753 51.4327C44.5479 51.3717 44.3435 51.3078 44.1384 51.2504C44.0294 51.221 43.9199 51.1889 43.8083 51.1852C43.2121 51.1674 42.6132 51.1809 42.0202 51.1401C41.2895 51.0903 40.5626 51.0019 39.8346 50.9173C39.7252 50.9048 39.62 50.839 39.5169 50.7735C39.4179 50.7105 39.3711 50.5223 39.3539 50.2823C39.3295 49.9317 39.4298 49.5715 39.5868 49.5004C39.6861 49.4553 39.7875 49.4661 39.882 49.4966C40.3157 49.6391 40.7603 49.6676 41.2163 49.594C41.342 49.5737 41.4753 49.5308 41.5892 49.5918C41.953 49.7832 42.3459 49.7265 42.7194 49.8272C42.9975 49.9026 43.2832 49.9156 43.5638 49.9709C44.0638 50.0701 44.5627 50.1833 45.0628 50.2859C45.2622 50.3272 45.44 50.4562 45.5789 50.7577C45.6427 50.8974 45.6037 51.2134 45.506 51.2755C45.3673 51.3628 45.2267 51.4136 45.0896 51.4393C44.9767 51.4609 44.8665 51.4227 44.7558 51.4105C44.7546 51.4177 44.7539 51.4241 44.7522 51.4321L44.753 51.4327Z" fill="#EE701B"/>
    <path d="M13.908 28.5374L14.2165 29.235C14.2723 29.3571 14.3238 29.4822 14.399 29.5916C14.6025 29.8828 14.803 30.1767 14.9989 30.4745C15.1943 30.7731 15.3791 31.0775 15.5486 31.3916C15.7534 31.7794 15.9452 32.1749 16.1194 32.5786C16.2935 32.9822 16.456 33.3899 16.6063 33.8023C16.6527 33.9264 16.6487 34.0708 16.6397 34.2122C16.6322 34.3476 16.4876 34.4836 16.2806 34.6084C15.978 34.7886 15.6045 34.8418 15.4665 34.713C15.378 34.6317 15.3409 34.5215 15.3207 34.4117C15.2352 33.9026 15.0243 33.4368 14.7088 33.0242C14.6228 32.9103 14.5116 32.802 14.4981 32.6601C14.4554 32.2021 14.1723 31.8533 14.0244 31.4425C13.9693 31.2889 13.8997 31.1421 13.8246 30.9986C13.7513 30.8539 13.673 30.7118 13.602 30.5653C13.3525 30.0419 13.0951 29.5181 12.8109 29.008C12.6992 28.8036 12.6626 28.5637 12.7814 28.237C12.8363 28.0861 13.0989 27.9044 13.2187 27.9509C13.3887 28.0168 13.5364 28.1108 13.6591 28.2207C13.7601 28.3111 13.8148 28.4382 13.889 28.5492C13.8951 28.5451 13.9014 28.5423 13.9074 28.5382L13.908 28.5374Z" fill="#EE701B"/>
  </g>
  <defs>
    <clipPath id="clip0_546_11111">
      <rect width="48.0875" height="48.0875" fill="white" transform="translate(25.8008) rotate(32.4516)"/>
    </clipPath>
  </defs>
</svg>