<svg width="24" height="24" viewBox="0 0 24 24" fill="none" xmlns="http://www.w3.org/2000/svg">
<rect width="24" height="24" rx="12" fill="#0A66C2"/>
<g clip-path="url(#clip0_546_11225)">
<path d="M5 6.86655C5 6.41609 5.15766 6.04447 5.47297 5.75169C5.78828 5.45889 6.1982 5.3125 6.7027 5.3125C7.1982 5.3125 7.59909 5.45664 7.90541 5.74493C8.22072 6.04223 8.37838 6.42961 8.37838 6.90709C8.37838 7.33953 8.22523 7.69988 7.91892 7.98818C7.60361 8.28547 7.18919 8.43412 6.67568 8.43412H6.66216C6.16666 8.43412 5.76577 8.28547 5.45946 7.98818C5.15315 7.69088 5 7.317 5 6.86655ZM5.17568 18.6909V9.66385H8.17568V18.6909H5.17568ZM9.83784 18.6909H12.8378V13.6503C12.8378 13.335 12.8739 13.0918 12.9459 12.9206C13.0721 12.6143 13.2635 12.3553 13.5203 12.1436C13.777 11.9319 14.0991 11.826 14.4865 11.826C15.4955 11.826 16 12.5062 16 13.8666V18.6909H19V13.5152C19 12.1819 18.6847 11.1706 18.0541 10.4814C17.4234 9.79223 16.5901 9.44763 15.5541 9.44763C14.3919 9.44763 13.4865 9.94763 12.8378 10.9476V10.9747H12.8243L12.8378 10.9476V9.66385H9.83784C9.85585 9.95213 9.86486 10.8485 9.86486 12.353C9.86486 13.8575 9.85585 15.9701 9.83784 18.6909Z" fill="white"/>
</g>
<defs>
<clipPath id="clip0_546_11225">
<rect x="5" y="5" width="14" height="14" fill="white"/>
</clipPath>
</defs>
</svg>
