<svg width="30" height="30" viewBox="0 0 30 30" fill="none" xmlns="http://www.w3.org/2000/svg">
<rect width="30" height="30" rx="2" fill="#271A01"/>
<path d="M10.416 23.3346H6.87435V12.1888H10.416V23.3346ZM8.64518 10.6263C7.49935 10.6263 6.66602 9.79297 6.66602 8.64713C6.66602 7.5013 7.60352 6.66797 8.64518 6.66797C9.79102 6.66797 10.6244 7.5013 10.6244 8.64713C10.6244 9.79297 9.79102 10.6263 8.64518 10.6263ZM23.3327 23.3346H19.791V17.293C19.791 15.5221 19.0618 15.0013 18.0202 15.0013C16.9785 15.0013 15.9368 15.8346 15.9368 17.3971V23.3346H12.3952V12.1888H15.7285V13.7513C16.041 13.0221 17.291 11.8763 19.0618 11.8763C21.041 11.8763 23.1244 13.0221 23.1244 16.4596V23.3346H23.3327Z" fill="white"/>
</svg>
