<svg xmlns="http://www.w3.org/2000/svg" width="27" height="27" viewBox="0 0 27 27" fill="none">
  <path fill-rule="evenodd" clip-rule="evenodd" d="M24.3098 0H3.00619C1.52006 0 0.315918 1.20848 0.315918 2.69915V24.3008C0.315918 25.7917 1.52006 27 3.00619 27H24.3096C25.7957 27 26.9999 25.7915 26.9999 24.3008V2.69936C27.0001 1.20868 25.7959 0 24.3098 0ZM8.87827 21.3637H5.28814V9.81419H8.87827V21.3637ZM7.05957 8.3968C5.92603 8.3968 5.1938 7.59355 5.1938 6.60204C5.1938 5.58637 5.94936 4.80707 7.10684 4.80707C8.26392 4.80707 8.97282 5.58637 8.99614 6.60204C8.99614 7.59376 8.26392 8.3968 7.05957 8.3968ZM21.9859 21.3637H18.396V14.9629C18.396 13.4751 17.876 12.4595 16.5769 12.4595C15.585 12.4595 14.9948 13.1444 14.7349 13.8056C14.6405 14.042 14.6166 14.3725 14.6166 14.7034V21.3639H11.0267V13.4987C11.0267 12.0579 10.9794 10.8536 10.9323 9.81419H14.0499L14.2155 11.4203H14.2863C14.7586 10.6643 15.9161 9.55428 17.8527 9.55428C20.2145 9.55428 21.9857 11.1368 21.9857 14.5379V21.3637H21.9859Z" fill="#006699"/>
</svg>