<svg width="62" height="62" viewBox="0 0 62 62" fill="none" xmlns="http://www.w3.org/2000/svg">
<rect width="62" height="62.0005" rx="11.9231" fill="url(#paint0_linear_546_11801)"/>
<path d="M37.0811 26.5312L35.7254 26.8213C34.6246 27.0572 33.6577 27.7213 33.0457 28.6669L30.8262 32.0977L34.3654 32.4919" stroke="white" stroke-width="1.6" stroke-miterlimit="10" stroke-linecap="round" stroke-linejoin="round"/>
<path d="M43.1575 30.457L43.4475 31.8128C43.6834 32.9135 43.4741 34.0674 42.8621 35.0141L40.6415 38.4449L38.832 35.3775" stroke="white" stroke-width="1.6" stroke-miterlimit="10" stroke-linecap="round" stroke-linejoin="round"/>
<path d="M46.1239 19.2109C41.5839 20.1842 37.9214 23.5332 36.5359 27.9596L35.8102 30.2556L34.3652 32.489C34.3652 32.489 34.9751 33.509 36.3128 34.3749C37.6505 35.2398 38.8309 35.3779 38.8309 35.3779L40.2759 33.1446L42.0726 31.5423C45.5427 28.4642 47.0972 23.7521 46.1239 19.2109Z" stroke="white" stroke-width="1.6" stroke-miterlimit="10" stroke-linecap="round" stroke-linejoin="round"/>
<path d="M37.6074 31.3984C37.7434 31.5015 37.8879 31.6035 38.043 31.7034C39.3807 32.5693 40.5612 32.7 40.5612 32.7" stroke="white" stroke-width="1.6" stroke-miterlimit="10" stroke-linecap="round" stroke-linejoin="round"/>
<path d="M41.3125 25.2656L41.3295 25.34" stroke="white" stroke-miterlimit="10" stroke-linecap="round" stroke-linejoin="round"/>
<path d="M40.0898 27.1562L40.1058 27.2306" stroke="white" stroke-miterlimit="10" stroke-linecap="round" stroke-linejoin="round"/>
<path d="M35.7812 45.3438V45.875" stroke="white" stroke-miterlimit="10" stroke-linecap="round" stroke-linejoin="round"/>
<path d="M35.7812 42.6875V43.2188" stroke="white" stroke-miterlimit="10" stroke-linecap="round" stroke-linejoin="round"/>
<path d="M34.7188 44.2812H34.1875" stroke="white" stroke-miterlimit="10" stroke-linecap="round" stroke-linejoin="round"/>
<path d="M37.375 44.2812H36.8438" stroke="white" stroke-miterlimit="10" stroke-linecap="round" stroke-linejoin="round"/>
<path d="M44.2832 42.1602V43.2227" stroke="white" stroke-miterlimit="10" stroke-linecap="round" stroke-linejoin="round"/>
<path d="M44.2832 38.9727V40.0352" stroke="white" stroke-miterlimit="10" stroke-linecap="round" stroke-linejoin="round"/>
<path d="M43.2207 41.0977H42.1582" stroke="white" stroke-miterlimit="10" stroke-linecap="round" stroke-linejoin="round"/>
<path d="M46.4082 41.0977H45.3457" stroke="white" stroke-miterlimit="10" stroke-linecap="round" stroke-linejoin="round"/>
<path d="M18.3658 32.3979L17.9609 32.3203" stroke="white" stroke-miterlimit="10" stroke-linecap="round" stroke-linejoin="round"/>
<path d="M27.6696 32.4859L26.0174 31.9015C25.8071 31.8271 25.5818 31.8091 25.3608 31.8484L20.5233 32.7228C20.3681 32.7504 20.2087 32.7494 20.0547 32.7207" stroke="white" stroke-miterlimit="10" stroke-linecap="round" stroke-linejoin="round"/>
<path d="M26.7461 37.1831L27.8437 36.9844" stroke="white" stroke-miterlimit="10" stroke-linecap="round" stroke-linejoin="round"/>
<path d="M23.248 38.6982L24.777 37.7695" stroke="white" stroke-miterlimit="10" stroke-linecap="round" stroke-linejoin="round"/>
<path d="M30.9414 18.922C31.2123 18.6341 31.7308 18.6829 32.0985 19.0314" stroke="white" stroke-miterlimit="10" stroke-linecap="round" stroke-linejoin="round"/>
<path d="M20.4902 36.4531L20.5062 36.5434" stroke="white" stroke-miterlimit="10" stroke-linecap="round" stroke-linejoin="round"/>
<path d="M18.5332 25.6328L18.5491 25.7221" stroke="white" stroke-miterlimit="10" stroke-linecap="round" stroke-linejoin="round"/>
<path d="M30.5801 25.3203L30.596 25.4106" stroke="white" stroke-miterlimit="10" stroke-linecap="round" stroke-linejoin="round"/>
<path d="M29.6035 19.9141L29.6195 20.0044" stroke="white" stroke-miterlimit="10" stroke-linecap="round" stroke-linejoin="round"/>
<path d="M27.6992 35.1484L27.7141 35.2377" stroke="white" stroke-miterlimit="10" stroke-linecap="round" stroke-linejoin="round"/>
<path d="M22.8691 34.1602L22.8851 34.2505" stroke="white" stroke-miterlimit="10" stroke-linecap="round" stroke-linejoin="round"/>
<path d="M23.709 24.0091C23.7154 23.5055 24.0394 22.6343 24.7354 22.5078" stroke="white" stroke-miterlimit="10" stroke-linecap="round" stroke-linejoin="round"/>
<path d="M25.0215 18.9468C25.4401 18.7173 25.847 18.4655 26.2412 18.1967L29.9515 15.6562" stroke="white" stroke-miterlimit="10" stroke-linecap="round" stroke-linejoin="round"/>
<path d="M22.6914 19.9735C22.8997 19.9023 23.1068 19.8268 23.3151 19.7461" stroke="white" stroke-miterlimit="10" stroke-linecap="round" stroke-linejoin="round"/>
<path d="M20.5801 20.6336L20.9615 20.5156" stroke="white" stroke-miterlimit="10" stroke-linecap="round" stroke-linejoin="round"/>
<path d="M25.0151 41.5805C20.4156 40.1685 16.7372 36.2957 15.8245 31.2424C14.5219 24.0355 19.3244 17.1133 26.5313 15.8107C31.5708 14.9001 36.4699 16.9752 39.4067 20.7683" stroke="white" stroke-width="1.6" stroke-miterlimit="10" stroke-linecap="round" stroke-linejoin="round"/>
<path d="M36.2383 36.6484C32.7331 41.3033 27.9519 45.2164 24.7676 46.4118" stroke="white" stroke-miterlimit="10" stroke-linecap="round" stroke-linejoin="round"/>
<path d="M33.6549 35.7852C27.6284 43.4893 20.6255 47.7617 17.3317 45.4762C15.4798 44.1917 15.1589 41.0817 16.1417 37.1239" stroke="white" stroke-miterlimit="10" stroke-linecap="round" stroke-linejoin="round"/>
<defs>
<linearGradient id="paint0_linear_546_11801" x1="-12.6384" y1="-1.43714e-07" x2="38.177" y2="77.9006" gradientUnits="userSpaceOnUse">
<stop stop-color="#E14548"/>
<stop offset="1" stop-color="#FFBE3A"/>
</linearGradient>
</defs>
</svg>
