<svg width="114" height="34" viewBox="0 0 114 34" fill="none" xmlns="http://www.w3.org/2000/svg">
<path d="M0.868 27V25.152H1.148C1.484 25.152 1.77333 25.124 2.016 25.068C2.25867 25.012 2.45467 24.9093 2.604 24.76C2.75333 24.6107 2.828 24.396 2.828 24.116V9.976C2.828 9.696 2.75333 9.49067 2.604 9.36C2.45467 9.21067 2.25867 9.108 2.016 9.052C1.77333 8.996 1.484 8.968 1.148 8.968H0.868V7.12H10.136L14.056 21.82L13.076 20.252L16.996 7.12H26.124V8.968H25.844C25.5267 8.968 25.2373 8.996 24.976 9.052C24.7147 9.108 24.5093 9.21067 24.36 9.36C24.2293 9.49067 24.164 9.696 24.164 9.976V24.144C24.164 24.4053 24.2293 24.6107 24.36 24.76C24.5093 24.9093 24.7147 25.012 24.976 25.068C25.2373 25.124 25.5267 25.152 25.844 25.152H26.124V27H16.912V25.152H17.136C17.3973 25.152 17.6493 25.1427 17.892 25.124C18.1347 25.1053 18.34 25.0773 18.508 25.04C18.676 24.984 18.76 24.928 18.76 24.872V7.708L19.124 7.764L13.356 27.056H10.528L4.732 7.764L5.152 7.736V24.872C5.152 24.928 5.236 24.984 5.404 25.04C5.59067 25.0773 5.81467 25.1053 6.076 25.124C6.33733 25.1427 6.58933 25.152 6.832 25.152H7V27H0.868ZM30.3763 24.144V9.976C30.3763 9.56533 30.2176 9.29467 29.9003 9.164C29.5829 9.03333 29.1816 8.968 28.6963 8.968H28.4163V7.12H37.7403V8.968H37.4603C36.9749 8.968 36.5736 9.03333 36.2563 9.164C35.9389 9.29467 35.7803 9.56533 35.7803 9.976V24.144C35.7803 24.5547 35.9389 24.8253 36.2563 24.956C36.5736 25.0867 36.9749 25.152 37.4603 25.152H37.7403V27H28.4163V25.152H28.6963C29.1816 25.152 29.5829 25.0867 29.9003 24.956C30.2176 24.8253 30.3763 24.5547 30.3763 24.144ZM46.5192 24.144V9.248H45.6512C44.9792 9.248 44.4192 9.276 43.9712 9.332C43.5418 9.388 43.2152 9.50933 42.9912 9.696C42.7858 9.864 42.6738 10.116 42.6552 10.452L42.3752 13.532H39.9952V7.12H58.4752V13.532H56.0672L55.8152 10.452C55.7965 10.116 55.6752 9.864 55.4512 9.696C55.2458 9.50933 54.9192 9.388 54.4712 9.332C54.0418 9.276 53.4818 9.248 52.7912 9.248H51.9232V24.144C51.9232 24.5547 52.0725 24.8253 52.3712 24.956C52.6885 25.0867 53.0898 25.152 53.5752 25.152H53.9952V27H44.4472V25.152H44.8672C45.3525 25.152 45.7445 25.0867 46.0432 24.956C46.3605 24.8253 46.5192 24.5547 46.5192 24.144Z" fill="#EE701B"/>
<path d="M72.317 14.247C71.641 14.247 71.017 14.1387 70.445 13.922C69.8817 13.6967 69.392 13.376 68.976 12.96C68.56 12.544 68.2393 12.037 68.014 11.439C67.7887 10.8323 67.676 10.1477 67.676 9.385C67.676 8.61367 67.7887 7.929 68.014 7.331C68.2393 6.733 68.56 6.226 68.976 5.81C69.392 5.394 69.8817 5.07767 70.445 4.861C71.017 4.63567 71.641 4.523 72.317 4.523C73.0103 4.523 73.6387 4.63567 74.202 4.861C74.7653 5.07767 75.255 5.394 75.671 5.81C76.087 6.226 76.4077 6.733 76.633 7.331C76.8583 7.929 76.971 8.61367 76.971 9.385C76.971 10.1477 76.8583 10.8323 76.633 11.439C76.4077 12.037 76.087 12.544 75.671 12.96C75.255 13.376 74.7653 13.6967 74.202 13.922C73.6387 14.1387 73.0103 14.247 72.317 14.247ZM72.317 13.324C72.785 13.324 73.201 13.246 73.565 13.09C73.929 12.9253 74.2367 12.6783 74.488 12.349C74.7393 12.0197 74.93 11.608 75.06 11.114C75.1987 10.62 75.268 10.0437 75.268 9.385C75.268 8.72633 75.1987 8.15 75.06 7.656C74.93 7.162 74.7393 6.75033 74.488 6.421C74.2367 6.09167 73.929 5.849 73.565 5.693C73.201 5.52833 72.785 5.446 72.317 5.446C71.8577 5.446 71.446 5.52833 71.082 5.693C70.718 5.849 70.4103 6.09167 70.159 6.421C69.9077 6.75033 69.7127 7.162 69.574 7.656C69.444 8.15 69.379 8.72633 69.379 9.385C69.379 10.0437 69.444 10.62 69.574 11.114C69.7127 11.608 69.9077 12.0197 70.159 12.349C70.4103 12.6783 70.718 12.9253 71.082 13.09C71.446 13.246 71.8577 13.324 72.317 13.324ZM78.4441 14V13.298H78.4831C78.6824 13.298 78.8557 13.2763 79.0031 13.233C79.1504 13.1897 79.2631 13.116 79.3411 13.012C79.4277 12.8993 79.4711 12.7477 79.4711 12.557V8.293C79.4711 8.17167 79.4364 8.085 79.3671 8.033C79.2977 7.97233 79.1981 7.92467 79.0681 7.89C78.9381 7.84667 78.7691 7.80333 78.5611 7.76L78.4441 7.734V6.954H80.7581L80.9401 8.475L80.9921 8.54V13.168C80.9921 13.194 81.0397 13.22 81.1351 13.246C81.2304 13.2633 81.3431 13.2763 81.4731 13.285C81.6031 13.2937 81.7201 13.298 81.8241 13.298H81.8761V14H78.4441ZM86.5561 14H83.1241V13.298H83.1631C83.2757 13.298 83.3971 13.2937 83.5271 13.285C83.6571 13.2763 83.7697 13.2633 83.8651 13.246C83.9604 13.22 84.0081 13.194 84.0081 13.168V8.93C84.0081 8.68733 83.9734 8.488 83.9041 8.332C83.8434 8.16733 83.7394 8.046 83.5921 7.968C83.4447 7.88133 83.2411 7.838 82.9811 7.838C82.7297 7.838 82.4741 7.89433 82.2141 8.007C81.9627 8.11967 81.7157 8.28867 81.4731 8.514C81.2304 8.73933 80.9791 9.02967 80.7191 9.385L80.7321 8.618C80.9661 8.23667 81.2261 7.91167 81.5121 7.643C81.7981 7.37433 82.1057 7.17067 82.4351 7.032C82.7731 6.88467 83.1327 6.811 83.5141 6.811C83.9474 6.811 84.3114 6.88467 84.6061 7.032C84.9007 7.17933 85.1261 7.40467 85.2821 7.708C85.4467 8.00267 85.5291 8.36667 85.5291 8.8V12.557C85.5291 12.7477 85.5681 12.8993 85.6461 13.012C85.7241 13.116 85.8367 13.1897 85.9841 13.233C86.1314 13.2763 86.3091 13.298 86.5171 13.298H86.5561V14ZM90.1397 4.107V12.609C90.1397 12.8777 90.2264 13.0597 90.3997 13.155C90.573 13.2503 90.8157 13.298 91.1277 13.298H91.1667V14H87.5917V13.298H87.6307C87.934 13.298 88.1724 13.2503 88.3457 13.155C88.5277 13.0597 88.6187 12.8777 88.6187 12.609V5.446C88.6187 5.32467 88.584 5.23367 88.5147 5.173C88.454 5.11233 88.3544 5.06467 88.2157 5.03C88.0857 4.98667 87.9167 4.94767 87.7087 4.913L87.5787 4.887V4.107H90.1397ZM93.9714 5.693C93.6768 5.693 93.4341 5.615 93.2434 5.459C93.0614 5.303 92.9704 5.069 92.9704 4.757C92.9704 4.45367 93.0614 4.224 93.2434 4.068C93.4341 3.912 93.6768 3.834 93.9714 3.834C94.2748 3.834 94.5174 3.912 94.6994 4.068C94.8901 4.224 94.9854 4.45367 94.9854 4.757C94.9854 5.069 94.8901 5.303 94.6994 5.459C94.5174 5.615 94.2748 5.693 93.9714 5.693ZM94.8294 6.954V12.609C94.8294 12.8777 94.9161 13.0597 95.0894 13.155C95.2714 13.2503 95.5141 13.298 95.8174 13.298H95.8694V14H92.2814V13.298H92.3204C92.6324 13.298 92.8751 13.2503 93.0484 13.155C93.2218 13.0597 93.3084 12.8777 93.3084 12.609V8.293C93.3084 8.11967 93.2348 8.00267 93.0874 7.942C92.9401 7.88133 92.7148 7.82067 92.4114 7.76L92.2814 7.734V6.954H94.8294ZM96.9975 14V13.298H97.0365C97.2358 13.298 97.4092 13.2763 97.5565 13.233C97.7038 13.1897 97.8165 13.116 97.8945 13.012C97.9812 12.8993 98.0245 12.7477 98.0245 12.557V8.293C98.0245 8.17167 97.9898 8.085 97.9205 8.033C97.8512 7.97233 97.7515 7.92467 97.6215 7.89C97.4915 7.84667 97.3225 7.80333 97.1145 7.76L96.9975 7.734V6.954H99.3115L99.4935 8.475L99.5455 8.54V13.168C99.5455 13.194 99.5932 13.22 99.6885 13.246C99.7838 13.2633 99.8965 13.2763 100.027 13.285C100.157 13.2937 100.274 13.298 100.378 13.298H100.43V14H96.9975ZM105.11 14H101.678V13.298H101.717C101.829 13.298 101.951 13.2937 102.081 13.285C102.211 13.2763 102.323 13.2633 102.419 13.246C102.514 13.22 102.562 13.194 102.562 13.168V8.93C102.562 8.68733 102.527 8.488 102.458 8.332C102.397 8.16733 102.293 8.046 102.146 7.968C101.998 7.88133 101.795 7.838 101.535 7.838C101.283 7.838 101.028 7.89433 100.768 8.007C100.516 8.11967 100.269 8.28867 100.027 8.514C99.7838 8.73933 99.5325 9.02967 99.2725 9.385L99.2855 8.618C99.5195 8.23667 99.7795 7.91167 100.066 7.643C100.352 7.37433 100.659 7.17067 100.989 7.032C101.327 6.88467 101.686 6.811 102.068 6.811C102.501 6.811 102.865 6.88467 103.16 7.032C103.454 7.17933 103.68 7.40467 103.836 7.708C104 8.00267 104.083 8.36667 104.083 8.8V12.557C104.083 12.7477 104.122 12.8993 104.2 13.012C104.278 13.116 104.39 13.1897 104.538 13.233C104.685 13.2763 104.863 13.298 105.071 13.298H105.11V14ZM107.832 10.542C107.832 11.036 107.884 11.4607 107.988 11.816C108.101 12.1627 108.257 12.4443 108.456 12.661C108.655 12.869 108.889 13.0207 109.158 13.116C109.435 13.2113 109.739 13.259 110.068 13.259C110.423 13.259 110.731 13.2027 110.991 13.09C111.251 12.9687 111.476 12.8127 111.667 12.622C111.858 12.4227 112.022 12.2103 112.161 11.985L112.876 12.531C112.703 12.8517 112.477 13.1377 112.2 13.389C111.923 13.6317 111.593 13.8223 111.212 13.961C110.839 14.091 110.419 14.156 109.951 14.156C109.24 14.156 108.608 14.0173 108.053 13.74C107.507 13.4627 107.078 13.0553 106.766 12.518C106.454 11.972 106.298 11.309 106.298 10.529C106.298 9.78367 106.441 9.13367 106.727 8.579C107.022 8.02433 107.425 7.591 107.936 7.279C108.447 6.967 109.041 6.811 109.717 6.811C110.254 6.811 110.718 6.89767 111.108 7.071C111.507 7.23567 111.836 7.487 112.096 7.825C112.356 8.163 112.551 8.58333 112.681 9.086C112.82 9.58 112.889 10.165 112.889 10.841H107.442V10.022H111.719L111.394 10.334C111.377 9.83133 111.333 9.411 111.264 9.073C111.203 8.735 111.108 8.46633 110.978 8.267C110.848 8.059 110.679 7.91167 110.471 7.825C110.272 7.73833 110.025 7.695 109.73 7.695C109.444 7.695 109.184 7.75133 108.95 7.864C108.716 7.968 108.512 8.137 108.339 8.371C108.174 8.59633 108.049 8.891 107.962 9.255C107.875 9.61033 107.832 10.0393 107.832 10.542ZM68.859 27.713V21.057C68.859 20.8663 68.7637 20.7407 68.573 20.68C68.3823 20.6193 68.1397 20.589 67.845 20.589H67.637V19.77H71.667V20.589H71.459C71.173 20.589 70.9347 20.6193 70.744 20.68C70.5533 20.7407 70.458 20.8663 70.458 21.057V27.713C70.458 27.9037 70.5533 28.0293 70.744 28.09C70.9347 28.1507 71.173 28.181 71.459 28.181H71.667V29H67.637V28.181H67.845C68.1397 28.181 68.3823 28.1507 68.573 28.09C68.7637 28.0293 68.859 27.9037 68.859 27.713ZM73.0866 29V28.298H73.1256C73.325 28.298 73.4983 28.2763 73.6456 28.233C73.793 28.1897 73.9056 28.116 73.9836 28.012C74.0703 27.8993 74.1136 27.7477 74.1136 27.557V23.293C74.1136 23.1717 74.079 23.085 74.0096 23.033C73.9403 22.9723 73.8406 22.9247 73.7106 22.89C73.5806 22.8467 73.4116 22.8033 73.2036 22.76L73.0866 22.734V21.954H75.4006L75.5826 23.475L75.6346 23.54V28.168C75.6346 28.194 75.6823 28.22 75.7776 28.246C75.873 28.2633 75.9856 28.2763 76.1156 28.285C76.2456 28.2937 76.3626 28.298 76.4666 28.298H76.5186V29H73.0866ZM81.1986 29H77.7666V28.298H77.8056C77.9183 28.298 78.0396 28.2937 78.1696 28.285C78.2996 28.2763 78.4123 28.2633 78.5076 28.246C78.603 28.22 78.6506 28.194 78.6506 28.168V23.93C78.6506 23.6873 78.616 23.488 78.5466 23.332C78.486 23.1673 78.382 23.046 78.2346 22.968C78.0873 22.8813 77.8836 22.838 77.6236 22.838C77.3723 22.838 77.1166 22.8943 76.8566 23.007C76.6053 23.1197 76.3583 23.2887 76.1156 23.514C75.873 23.7393 75.6216 24.0297 75.3616 24.385L75.3746 23.618C75.6086 23.2367 75.8686 22.9117 76.1546 22.643C76.4406 22.3743 76.7483 22.1707 77.0776 22.032C77.4156 21.8847 77.7753 21.811 78.1566 21.811C78.59 21.811 78.954 21.8847 79.2486 22.032C79.5433 22.1793 79.7686 22.4047 79.9246 22.708C80.0893 23.0027 80.1716 23.3667 80.1716 23.8V27.557C80.1716 27.7477 80.2106 27.8993 80.2886 28.012C80.3666 28.116 80.4793 28.1897 80.6266 28.233C80.774 28.2763 80.9516 28.298 81.1596 28.298H81.1986V29ZM89.3942 27.713C89.3942 27.8863 89.4766 28.0033 89.6412 28.064C89.8146 28.116 90.0442 28.1637 90.3302 28.207L90.4212 28.233V29H88.1072L87.9252 27.453L87.8602 27.479V20.446C87.8602 20.3247 87.8256 20.2337 87.7562 20.173C87.6956 20.1123 87.5959 20.0647 87.4572 20.03C87.3186 19.9867 87.1496 19.9477 86.9502 19.913L86.8202 19.887V19.107H89.3942V27.713ZM85.6112 21.811C86.0099 21.811 86.3609 21.8847 86.6642 22.032C86.9762 22.1707 87.2579 22.3743 87.5092 22.643C87.7606 22.9117 87.9859 23.241 88.1852 23.631L88.1462 24.45C87.9209 24.0773 87.6912 23.7697 87.4572 23.527C87.2319 23.2757 86.9892 23.0893 86.7292 22.968C86.4692 22.838 86.1789 22.773 85.8582 22.773C85.5462 22.773 85.2732 22.8337 85.0392 22.955C84.8052 23.0763 84.6059 23.254 84.4412 23.488C84.2852 23.7133 84.1682 23.9993 84.0902 24.346C84.0122 24.6927 83.9732 25.0913 83.9732 25.542C83.9732 25.9753 84.0079 26.3567 84.0772 26.686C84.1466 27.0153 84.2549 27.2927 84.4022 27.518C84.5496 27.7433 84.7359 27.9123 84.9612 28.025C85.1866 28.1377 85.4552 28.194 85.7672 28.194C86.1052 28.194 86.4086 28.1333 86.6772 28.012C86.9459 27.8907 87.2016 27.7043 87.4442 27.453C87.6869 27.193 87.9296 26.8637 88.1722 26.465L88.1852 27.271C87.9686 27.661 87.7302 27.999 87.4702 28.285C87.2189 28.5623 86.9286 28.779 86.5992 28.935C86.2786 29.0823 85.9059 29.156 85.4812 29.156C84.8226 29.156 84.2592 29.0043 83.7912 28.701C83.3319 28.389 82.9809 27.9643 82.7382 27.427C82.5042 26.881 82.3872 26.2527 82.3872 25.542C82.3872 24.8227 82.5129 24.1857 82.7642 23.631C83.0242 23.0677 83.3926 22.6257 83.8692 22.305C84.3546 21.9757 84.9352 21.811 85.6112 21.811ZM93.2224 20.693C92.9278 20.693 92.6851 20.615 92.4944 20.459C92.3124 20.303 92.2214 20.069 92.2214 19.757C92.2214 19.4537 92.3124 19.224 92.4944 19.068C92.6851 18.912 92.9278 18.834 93.2224 18.834C93.5258 18.834 93.7684 18.912 93.9504 19.068C94.1411 19.224 94.2364 19.4537 94.2364 19.757C94.2364 20.069 94.1411 20.303 93.9504 20.459C93.7684 20.615 93.5258 20.693 93.2224 20.693ZM94.0804 21.954V27.609C94.0804 27.8777 94.1671 28.0597 94.3404 28.155C94.5224 28.2503 94.7651 28.298 95.0684 28.298H95.1204V29H91.5324V28.298H91.5714C91.8834 28.298 92.1261 28.2503 92.2994 28.155C92.4728 28.0597 92.5594 27.8777 92.5594 27.609V23.293C92.5594 23.1197 92.4858 23.0027 92.3384 22.942C92.1911 22.8813 91.9658 22.8207 91.6624 22.76L91.5324 22.734V21.954H94.0804ZM100.98 24.71V25.464C100.486 25.5333 100.062 25.6113 99.7065 25.698C99.3511 25.7847 99.0565 25.88 98.8225 25.984C98.5971 26.088 98.4195 26.205 98.2895 26.335C98.1595 26.4563 98.0685 26.595 98.0165 26.751C97.9645 26.8983 97.9385 27.063 97.9385 27.245C97.9385 27.4877 97.9818 27.687 98.0685 27.843C98.1638 27.9903 98.2938 28.103 98.4585 28.181C98.6231 28.2503 98.8181 28.285 99.0435 28.285C99.2861 28.285 99.5115 28.2287 99.7195 28.116C99.9361 28.0033 100.144 27.83 100.343 27.596C100.551 27.362 100.759 27.063 100.967 26.699L101.006 27.414C100.824 27.7867 100.616 28.103 100.382 28.363C100.157 28.6143 99.8971 28.8093 99.6025 28.948C99.3165 29.078 98.9871 29.143 98.6145 29.143C98.1725 29.143 97.7868 29.0737 97.4575 28.935C97.1281 28.7963 96.8768 28.5883 96.7035 28.311C96.5301 28.0337 96.4435 27.6913 96.4435 27.284C96.4435 26.92 96.5215 26.6037 96.6775 26.335C96.8421 26.0663 97.1021 25.8323 97.4575 25.633C97.8215 25.4337 98.2895 25.2603 98.8615 25.113C99.4421 24.957 100.148 24.8227 100.98 24.71ZM101.019 29L100.837 27.505L100.772 27.453V23.878C100.772 23.592 100.733 23.3623 100.655 23.189C100.577 23.0157 100.443 22.89 100.252 22.812C100.062 22.734 99.8018 22.695 99.4725 22.695C98.9785 22.695 98.5711 22.76 98.2505 22.89C97.9298 23.0113 97.7001 23.1457 97.5615 23.293C97.5441 23.2323 97.5441 23.1673 97.5615 23.098C97.5875 23.0287 97.6265 22.9637 97.6785 22.903C97.7391 22.8337 97.8128 22.7773 97.8995 22.734C97.9948 22.6907 98.1031 22.6647 98.2245 22.656V24.19H96.8465V22.539C96.9765 22.4523 97.1628 22.3527 97.4055 22.24C97.6481 22.1273 97.9515 22.0277 98.3155 21.941C98.6795 21.8543 99.0955 21.811 99.5635 21.811C99.9621 21.811 100.326 21.85 100.655 21.928C100.993 22.006 101.279 22.1273 101.513 22.292C101.756 22.448 101.942 22.656 102.072 22.916C102.211 23.1673 102.28 23.4793 102.28 23.852V27.713C102.28 27.8257 102.315 27.9123 102.384 27.973C102.462 28.0337 102.571 28.0813 102.709 28.116C102.848 28.1507 103.017 28.181 103.216 28.207L103.307 28.233V29H101.019Z" fill="white"/>
</svg>
