<svg xmlns="http://www.w3.org/2000/svg" width="19" height="18" viewBox="0 0 19 18" fill="none">
  <path d="M4.625 1.5C4.12772 1.5 3.65081 1.69754 3.29917 2.04917C2.94754 2.40081 2.75 2.87772 2.75 3.375V14.625C2.75 15.1223 2.94754 15.5992 3.29917 15.9508C3.65081 16.3025 4.12772 16.5 4.625 16.5H10.1075C9.78596 16.1653 9.51373 15.7865 9.299 15.375H4.625C4.42609 15.375 4.23532 15.296 4.09467 15.1553C3.95402 15.0147 3.875 14.8239 3.875 14.625H8.98475C8.86709 14.26 8.79307 13.8824 8.76425 13.5H3.875V3.375C3.875 3.17609 3.95402 2.98532 4.09467 2.84467C4.23532 2.70402 4.42609 2.625 4.625 2.625H13.25C13.4489 2.625 13.6397 2.70402 13.7803 2.84467C13.921 2.98532 14 3.17609 14 3.375V8.26425C14.39 8.29425 14.7665 8.36925 15.125 8.48475V3.375C15.125 2.87772 14.9275 2.40081 14.5758 2.04917C14.2242 1.69754 13.7473 1.5 13.25 1.5H4.625Z" fill="#707070"/>
  <path d="M17.75 13.125C17.75 12.031 17.3154 10.9818 16.5418 10.2082C15.7682 9.4346 14.719 9 13.625 9C12.531 9 11.4818 9.4346 10.7082 10.2082C9.9346 10.9818 9.5 12.031 9.5 13.125C9.5 14.219 9.9346 15.2682 10.7082 16.0418C11.4818 16.8154 12.531 17.25 13.625 17.25C14.719 17.25 15.7682 16.8154 16.5418 16.0418C17.3154 15.2682 17.75 14.219 17.75 13.125ZM13.1855 11.3228L15.29 12.7028C15.3552 12.7446 15.4087 12.8024 15.4454 12.8706C15.4822 12.9388 15.501 13.0153 15.5 13.0928C15.5001 13.1707 15.4816 13.2476 15.446 13.317C15.4124 13.3857 15.3612 13.4442 15.2975 13.4865L13.1923 14.9227C13.1556 14.9474 13.1157 14.9668 13.0737 14.9805C12.9763 15.0116 12.8707 15.0055 12.7775 14.9633C12.7238 14.9381 12.6748 14.9038 12.6328 14.862C12.5921 14.8178 12.5592 14.7671 12.5353 14.712C12.5118 14.6557 12.4998 14.5953 12.5 14.5343V11.7158C12.4996 11.6255 12.5254 11.5371 12.5743 11.4612C12.6231 11.3853 12.6929 11.3252 12.7753 11.2882C12.8406 11.2576 12.9129 11.2446 12.9849 11.2505C13.0568 11.2564 13.126 11.2811 13.1855 11.322V11.3228ZM5 4.5C5 4.30109 5.07902 4.11032 5.21967 3.96967C5.36032 3.82902 5.55109 3.75 5.75 3.75H11.75C11.9489 3.75 12.1397 3.82902 12.2803 3.96967C12.421 4.11032 12.5 4.30109 12.5 4.5V6C12.5 6.19891 12.421 6.38968 12.2803 6.53033C12.1397 6.67098 11.9489 6.75 11.75 6.75H5.75C5.55109 6.75 5.36032 6.67098 5.21967 6.53033C5.07902 6.38968 5 6.19891 5 6V4.5ZM6.125 5.625H11.375V4.875H6.125V5.625Z" fill="#707070"/>
</svg>