<svg xmlns="http://www.w3.org/2000/svg" width="20" height="20" viewBox="0 0 20 20" fill="none">
  <path d="M11.8755 7.5V12.5M8.12548 12.5V7.5M17.5005 9.99999C17.5005 10.9849 17.3065 11.9602 16.9296 12.8701C16.5527 13.7801 16.0002 14.6069 15.3038 15.3033C14.6073 15.9997 13.7805 16.5522 12.8706 16.9291C11.9607 17.306 10.9854 17.5 10.0005 17.5C9.01557 17.5 8.0403 17.306 7.13036 16.9291C6.22042 16.5522 5.39362 15.9997 4.69719 15.3033C4.00075 14.6069 3.4483 13.7801 3.07139 12.8701C2.69448 11.9602 2.50049 10.9849 2.50049 9.99999C2.50049 8.01087 3.29066 6.10322 4.69719 4.6967C6.10371 3.29018 8.01136 2.5 10.0005 2.5C11.9896 2.5 13.8973 3.29018 15.3038 4.6967C16.7103 6.10322 17.5005 8.01087 17.5005 9.99999Z" stroke="#3E5874" stroke-width="1.25" stroke-linecap="round" stroke-linejoin="round"/>
</svg>