<svg xmlns="http://www.w3.org/2000/svg" width="24" height="24" viewBox="0 0 24 24" fill="none">
  <path d="M4.25995 10.1462C3.9849 12.2518 3.82101 14.3704 3.76895 16.4932C6.64776 17.6957 9.40413 19.1725 12 20.9032C14.5961 19.1725 17.3528 17.6956 20.232 16.4932C20.1799 14.3704 20.016 12.2518 19.741 10.1462M19.741 10.1462C20.616 9.85219 21.503 9.58019 22.399 9.33219C19.1355 7.04444 15.6519 5.08808 12 3.49219C8.34795 5.08841 4.86435 7.04511 1.60095 9.33319C2.49422 9.57981 3.38056 9.85092 4.25895 10.1462C6.92757 11.0434 9.51685 12.1613 12 13.4882C14.4827 12.1612 17.0726 11.0434 19.741 10.1462ZM6.74995 14.9992C6.94886 14.9992 7.13963 14.9202 7.28028 14.7795C7.42093 14.6389 7.49995 14.4481 7.49995 14.2492C7.49995 14.0503 7.42093 13.8595 7.28028 13.7189C7.13963 13.5782 6.94886 13.4992 6.74995 13.4992C6.55104 13.4992 6.36027 13.5782 6.21962 13.7189C6.07897 13.8595 5.99995 14.0503 5.99995 14.2492C5.99995 14.4481 6.07897 14.6389 6.21962 14.7795C6.36027 14.9202 6.55104 14.9992 6.74995 14.9992ZM6.74995 14.9992V11.3242C8.44669 10.2695 10.1992 9.30745 12 8.44219M4.99295 19.9922C5.55092 19.4356 5.99339 18.7742 6.29492 18.046C6.59644 17.3179 6.75108 16.5373 6.74995 15.7492V14.2492" stroke="#090401" stroke-width="1.5" stroke-linecap="round" stroke-linejoin="round"/>
</svg>