<svg width="62" height="62" viewBox="0 0 62 62" fill="none" xmlns="http://www.w3.org/2000/svg">
<rect width="62" height="62.0005" rx="11.9231" fill="url(#paint0_linear_546_11849)"/>
<g clip-path="url(#clip0_546_11849)">
<path d="M19.0323 35.0541L19.0322 35.054C18.6885 34.6866 18.7083 34.109 19.0761 33.7648C19.4446 33.4209 20.0213 33.4407 20.3665 33.8086C23.2436 36.8884 27.0193 38.5875 31.0001 38.5875C36.1184 38.5875 40.8245 35.7878 43.7081 31.0783L43.756 31L43.7081 30.9217C40.8256 26.2122 36.1184 23.4125 31.0001 23.4125C25.6937 23.4125 20.8293 26.4229 17.9815 31.4499L17.9814 31.45C17.7331 31.8891 17.1746 32.0438 16.7383 31.7942L16.7377 31.7938C16.299 31.5458 16.1454 30.9893 16.3938 30.55C19.5754 24.9326 25.0381 21.5875 31.0001 21.5875C36.9632 21.5875 42.4249 24.9325 45.6064 30.55C45.7644 30.8294 45.7643 31.1707 45.6066 31.4487L45.6065 31.4488C42.425 37.0664 36.9633 40.4125 31.0001 40.4125C26.5126 40.4125 22.2633 38.5116 19.0323 35.0541Z" fill="white" stroke="#EE701B" stroke-width="0.3"/>
<path d="M31 36.1625C28.1535 36.1625 25.8375 33.8465 25.8375 31C25.8375 28.1535 28.1535 25.8375 31 25.8375C33.8465 25.8375 36.1625 28.1535 36.1625 31C36.1625 33.8465 33.8465 36.1625 31 36.1625ZM31 27.6625C29.1598 27.6625 27.6625 29.1598 27.6625 31C27.6625 32.8402 29.1598 34.3375 31 34.3375C32.8402 34.3375 34.3375 32.8402 34.3375 31C34.3375 29.1598 32.8402 27.6625 31 27.6625Z" fill="white" stroke="#EE701B" stroke-width="0.3"/>
</g>
<defs>
<linearGradient id="paint0_linear_546_11849" x1="-12.6384" y1="-1.43714e-07" x2="38.177" y2="77.9006" gradientUnits="userSpaceOnUse">
<stop stop-color="#E14548"/>
<stop offset="1" stop-color="#FFBE3A"/>
</linearGradient>
<clipPath id="clip0_546_11849">
<rect width="34" height="34" fill="white" transform="translate(14 14)"/>
</clipPath>
</defs>
</svg>
