<svg xmlns="http://www.w3.org/2000/svg" width="19" height="18" viewBox="0 0 19 18" fill="none">
  <g clip-path="url(#clip0_579_2249)">
    <path d="M2.22266 6H16.2957" stroke="#EE701B" stroke-width="0.6" stroke-miterlimit="10" stroke-linecap="round" stroke-linejoin="round"/>
    <path d="M17.4422 14.1003C17.4422 14.5995 17.0337 15.0083 16.5342 15.0083H1.98513C1.48516 15.0083 1.07715 14.5995 1.07715 14.1003V3.89601C1.07715 3.3968 1.48516 2.98828 1.98513 2.98828H16.5342C17.0337 2.98828 17.4422 3.3968 17.4422 3.89601V14.1003Z" stroke="#EE701B" stroke-miterlimit="10"/>
    <path d="M14.3425 12.4133V9.15126L9.20224 7.68359L4.0625 9.15964L9.20224 10.8443L14.1611 9.22722" stroke="#EE701B" stroke-width="0.8" stroke-miterlimit="10" stroke-linecap="round" stroke-linejoin="round"/>
    <path d="M6.42285 11.0789V12.3713C7.06688 12.9833 8.08486 13.3755 9.2027 13.3755C10.3203 13.3755 11.338 12.9833 11.982 12.3713V10.0078" stroke="#EE701B" stroke-width="0.8" stroke-miterlimit="10" stroke-linejoin="round"/>
    <path d="M3.07598 4.80391C2.85527 4.80391 2.67578 4.62451 2.67578 4.40391C2.67578 4.1833 2.85527 4.00391 3.07598 4.00391C3.29649 4.00391 3.47578 4.1833 3.47578 4.40391C3.47578 4.62451 3.29649 4.80391 3.07598 4.80391Z" fill="#EE701B"/>
    <path d="M4.96836 4.80391C5.18927 4.80391 5.36836 4.62482 5.36836 4.40391C5.36836 4.18299 5.18927 4.00391 4.96836 4.00391C4.74745 4.00391 4.56836 4.18299 4.56836 4.40391C4.56836 4.62482 4.74745 4.80391 4.96836 4.80391Z" fill="#EE701B"/>
    <path d="M6.86094 4.80391C7.08185 4.80391 7.26094 4.62482 7.26094 4.40391C7.26094 4.18299 7.08185 4.00391 6.86094 4.00391C6.64002 4.00391 6.46094 4.18299 6.46094 4.40391C6.46094 4.62482 6.64002 4.80391 6.86094 4.80391Z" fill="#EE701B"/>
  </g>
  <defs>
    <clipPath id="clip0_579_2249">
      <rect width="18" height="18" fill="white" transform="translate(0.259766)"/>
    </clipPath>
  </defs>
</svg>