<svg xmlns="http://www.w3.org/2000/svg" width="17" height="16" viewBox="0 0 17 16" fill="none">
  <path d="M0.947266 14.75H15.5723M2.07227 1.25V14.75M9.94727 1.25V14.75M14.4473 4.625V14.75M4.32227 4.0625H4.88477M4.32227 6.3125H4.88477M4.32227 8.5625H4.88477M7.13477 4.0625H7.69727M7.13477 6.3125H7.69727M7.13477 8.5625H7.69727M4.32227 14.75V12.2188C4.32227 11.753 4.70027 11.375 5.16602 11.375H6.85352C7.31927 11.375 7.69727 11.753 7.69727 12.2188V14.75M1.50977 1.25H10.5098M9.94727 4.625H15.0098M12.1973 7.4375H12.2033V7.4435H12.1973V7.4375ZM12.1973 9.6875H12.2033V9.6935H12.1973V9.6875ZM12.1973 11.9375H12.2033V11.9435H12.1973V11.9375Z" stroke="#EE701B" stroke-width="1.125" stroke-linecap="round" stroke-linejoin="round"/>
</svg>