<svg xmlns="http://www.w3.org/2000/svg" width="59" height="48" viewBox="0 0 59 48" fill="none">
  <path d="M0.539062 11.3668L1.78464 11.2061L2.83385 2.43205L1.33636 2.25727V1.48047H5.15616L7.35277 7.89607L7.71635 9.50523L8.03139 7.89607L9.96961 1.48047H13.7894V2.25727L12.2363 2.43906L13.5936 11.1985L14.8462 11.3663V12.1291H10.6903V11.3663L11.9289 11.2056L11.048 4.85307L10.7399 2.06145L10.2571 3.97863L7.97637 11.6538H7.07388L4.5482 4.7619L3.77141 2.06846L3.54754 4.84606L2.98112 11.1985L4.3594 11.3663V12.1291H0.539062V11.3668Z" fill="#090401"/>
  <path d="M15.6309 11.3668L16.911 11.1991V2.43906L15.6309 2.25727V1.48047H19.8428V2.25727L18.5627 2.43205V11.1985L19.8639 11.3873V12.1291H15.6309V11.3668Z" fill="#090401"/>
  <path d="M22.8989 11.3663L24.7249 11.1985V2.34789H22.395L21.8702 5.30728H20.8555L21.1004 1.48047H29.958L30.1819 5.30728H29.1812L28.6493 2.34789H26.4107V11.198L28.3904 11.3658V12.1285H22.8989V11.3663Z" fill="#090401"/>
  <path d="M5.61835 29.3301C4.85774 29.3301 4.1899 29.2044 3.61378 28.9519C3.03765 28.7 2.55485 28.3407 2.16537 27.8757C1.7759 27.4102 1.48298 26.8513 1.28716 26.1997C1.09134 25.548 0.993164 24.8289 0.993164 24.0435C0.993164 23.2214 1.11562 22.4802 1.36052 21.8194C1.60543 21.1586 1.94474 20.5938 2.37845 20.1261C2.81217 19.6584 3.3241 19.298 3.91425 19.0461C4.5044 18.7942 5.14418 18.668 5.83467 18.668C6.59474 18.668 7.26203 18.792 7.83546 19.0407C8.40943 19.2889 8.88738 19.64 9.26984 20.0937C9.65231 20.5474 9.93875 21.0955 10.1303 21.7385C10.3212 22.3815 10.4172 23.0946 10.4172 23.879C10.4172 24.7043 10.2959 25.4509 10.0537 26.1188C9.8109 26.7866 9.47645 27.3579 9.04975 27.832C8.62305 28.3062 8.11651 28.6741 7.53175 28.9363C6.94646 29.199 6.30884 29.3301 5.61835 29.3301ZM5.70952 28.5047C6.14754 28.5047 6.54565 28.4087 6.90222 28.2161C7.2588 28.0235 7.56358 27.736 7.8155 27.353C8.06742 26.97 8.26216 26.4888 8.39972 25.9089C8.53728 25.329 8.60633 24.6515 8.60633 23.8768C8.60633 23.1971 8.54213 22.5859 8.41374 22.0422C8.28536 21.4984 8.09763 21.0372 7.85057 20.6591C7.60296 20.2809 7.30033 19.9907 6.94106 19.7895C6.5818 19.5877 6.17344 19.4868 5.71653 19.4868C5.27796 19.4868 4.88039 19.5785 4.52382 19.762C4.16725 19.9454 3.86138 20.2253 3.60731 20.6013C3.35269 20.9773 3.15687 21.452 3.01985 22.0249C2.88229 22.5984 2.81325 23.2721 2.81325 24.0468C2.81325 24.7265 2.87744 25.3414 3.00583 25.8917C3.13421 26.4424 3.3214 26.9112 3.56901 27.2985C3.81607 27.6858 4.11924 27.9836 4.47851 28.1918C4.83724 28.4001 5.24775 28.5047 5.70952 28.5047Z" fill="#090401"/>
  <path d="M11.5723 28.5577L12.7267 28.397V19.6305L11.5723 19.4487V18.6719H14.3358L19.0446 25.5492L19.7864 26.9345V19.6235L18.5338 19.4487V18.6719H22.004V19.4487L20.8426 19.6305V29.3205H19.6952L14.8747 22.3029L13.7834 20.3997V28.3894L15.1196 28.5572V29.3199H11.5723V28.5577Z" fill="#090401"/>
  <path d="M23.0332 28.5577L24.2087 28.3899V19.6235L23.0542 19.4487V18.6719H27.2171V19.4487L25.8669 19.6305V28.3268H29.4003L30.2536 25.9198L31.1912 26.0806L30.7154 29.3199H23.0332V28.5577Z" fill="#090401"/>
  <path d="M32.2324 28.5577L33.5125 28.3899V19.6305L32.2324 19.4487V18.6719H36.4444V19.4487L35.1643 19.6235V28.3899L36.4654 28.5788V29.3205H32.2324V28.5577Z" fill="#090401"/>
  <path d="M37.9209 28.5577L39.0753 28.397V19.6305L37.9209 19.4487V18.6719H40.6845L45.3933 25.5492L46.135 26.9345V19.6235L44.8824 19.4487V18.6719H48.3527V19.4487L47.1912 19.6305V29.3205H46.0438L41.2234 22.3029L40.1321 20.3997V28.3894L41.4683 28.5572V29.3199H37.9209V28.5577Z" fill="#090401"/>
  <path d="M49.3672 28.5577L50.5426 28.3899V19.645L49.3882 19.4519V18.6719H56.6783L56.8741 20.8917H55.9716L55.5379 19.5188H52.1863V23.4017H54.4601L54.6699 22.2193H55.5724V25.5358H54.6699L54.4671 24.2902H52.1863V28.3759H56.0342L56.825 26.5429L57.7205 26.8088L57.3078 29.3205H49.3672V28.5577Z" fill="#090401"/>
  <path d="M1.31641 45.7575L2.5965 45.5897V36.8297L1.31641 36.6479V35.8711H5.52838V36.6479L4.24828 36.8227V45.5897L5.54942 45.7785V46.5202H1.31641V45.7575Z" fill="#090401"/>
  <path d="M7.00391 45.7575L8.15831 45.5967V36.8297L7.00391 36.6479V35.8711H9.76747L14.4763 42.7485L15.218 44.1337V36.8227L13.9654 36.6479V35.8711H17.4357V36.6479L16.2742 36.8297V46.5197H15.1268L10.3064 39.5021L9.21508 37.5989V45.5897L10.5513 45.7575V46.5202H7.00391V45.7575Z" fill="#090401"/>
  <path d="M18.4434 45.6906L19.6258 45.5255V36.903L18.5205 36.724V35.8711H20.3886C20.6028 35.8711 20.8142 35.8711 21.0219 35.8711C21.229 35.8711 21.4357 35.8711 21.6412 35.8711C21.8462 35.8711 22.0528 35.8711 22.2605 35.8711C22.4676 35.8711 22.6839 35.8711 22.9078 35.8711C23.8265 35.8711 24.6194 35.9876 25.2867 36.2201C25.9535 36.4526 26.5026 36.7855 26.9342 37.2186C27.3652 37.6518 27.684 38.1751 27.889 38.7884C28.094 39.4017 28.197 40.089 28.197 40.8502C28.197 41.7025 28.0649 42.4793 27.8016 43.1789C27.5378 43.8786 27.1672 44.4768 26.6893 44.9742C26.2108 45.471 25.6385 45.8529 24.9717 46.12C24.3044 46.3865 23.5654 46.5202 22.754 46.5202C22.5766 46.5202 22.391 46.5202 22.1979 46.5202C22.0042 46.5202 21.8084 46.5202 21.6104 46.5202C21.4119 46.5202 21.215 46.5202 21.0192 46.5202C20.8234 46.5202 20.6367 46.5202 20.4593 46.5202H18.4444V45.6906H18.4434ZM21.263 45.594C21.529 45.6744 21.7949 45.7149 22.0609 45.7149C22.3268 45.7149 22.6111 45.7149 22.9143 45.7149C23.4224 45.7149 23.8912 45.6167 24.3206 45.4214C24.7494 45.2256 25.119 44.9381 25.4297 44.5583C25.7399 44.1785 25.981 43.7054 26.1536 43.139C26.3262 42.5726 26.4126 41.9123 26.4126 41.1571C26.4126 39.6839 26.0932 38.564 25.454 37.7974C24.8147 37.0309 23.8421 36.6474 22.5367 36.6474C22.2286 36.6474 21.9708 36.663 21.7636 36.6943C21.5559 36.7256 21.3893 36.7466 21.2636 36.7585V45.594H21.263Z" fill="#090401"/>
  <path d="M29.4824 45.7575L30.7625 45.5897V36.8297L29.4824 36.6479V35.8711H33.6944V36.6479L32.4143 36.8227V45.5897L33.7154 45.7785V46.5202H29.4824V45.7575Z" fill="#090401"/>
  <path d="M34.248 45.7569L35.1365 45.5908L38.5857 35.8711H40.251L43.7282 45.5908L44.6167 45.7569V46.5197H40.7758V45.7569L41.9162 45.5892L41.2516 43.5463H37.1378L36.5013 45.5892L37.6978 45.7569V46.5197H34.2551L34.248 45.7569ZM40.9647 42.6573L39.4672 38.1324L39.1591 36.9753L38.8511 38.1465L37.4167 42.6573H40.9647Z" fill="#090401"/>
</svg>