<svg xmlns="http://www.w3.org/2000/svg" width="19" height="18" viewBox="0 0 19 18" fill="none">
  <g clip-path="url(#clip0_579_2212)">
    <path d="M3.45323 7.61159C3.24695 9.19077 3.12402 10.7797 3.08498 12.3718C5.24409 13.2737 7.31137 14.3813 9.25823 15.6793C11.2053 14.3813 13.2729 13.2737 15.4322 12.3718C15.3932 10.7797 15.2702 9.19078 15.064 7.61159M15.064 7.61159C15.7202 7.39109 16.3855 7.18709 17.0575 7.00109C14.6099 5.28528 11.9972 3.81801 9.25823 2.62109C6.51923 3.81826 3.90653 5.28578 1.45898 7.00184C2.12894 7.18681 2.79369 7.39014 3.45248 7.61159C5.45395 8.2845 7.39591 9.1229 9.25823 10.1181C11.1203 9.12289 13.0628 8.28449 15.064 7.61159ZM5.32073 11.2513C5.46992 11.2513 5.61299 11.1921 5.71848 11.0866C5.82397 10.9811 5.88323 10.838 5.88323 10.6888C5.88323 10.5397 5.82397 10.3966 5.71848 10.2911C5.61299 10.1856 5.46992 10.1263 5.32073 10.1263C5.17155 10.1263 5.02848 10.1856 4.92299 10.2911C4.8175 10.3966 4.75823 10.5397 4.75823 10.6888C4.75823 10.838 4.8175 10.9811 4.92299 11.0866C5.02848 11.1921 5.17155 11.2513 5.32073 11.2513ZM5.32073 11.2513V8.49509C6.59328 7.7041 7.90771 6.98254 9.25823 6.33359M4.00298 14.9961C4.42146 14.5786 4.75331 14.0826 4.97946 13.5365C5.2056 12.9904 5.32158 12.4049 5.32073 11.8138V10.6888" stroke="#EE701B" stroke-width="1.125" stroke-linecap="round" stroke-linejoin="round"/>
  </g>
  <defs>
    <clipPath id="clip0_579_2212">
      <rect width="18" height="18" fill="white" transform="translate(0.259766)"/>
    </clipPath>
  </defs>
</svg>